{
    "asset" : {
        "generator" : "Khronos glTF Blender I/O v1.7.33",
        "version" : "2.0"
    },
    "scene" : 0,
    "scenes" : [
        {
            "name" : "Scene",
            "nodes" : [
                0,
                1
            ]
        }
    ],
    "nodes" : [
        {
            "mesh" : 0,
            "name" : "Cube",
            "scale" : [
                1.600000023841858,
                1,
                0.30000001192092896
            ],
            "translation" : [
                0,
                -0.14999999105930328,
                -0.3693391680717468
            ]
        },
        {
            "mesh" : 1,
            "name" : "Text",
            "rotation" : [
                0.7071068286895752,
                0,
                0,
                0.7071068286895752
            ],
            "scale" : [
                0.7052353620529175,
                2.33168363571167,
                0.7052353620529175
            ],
            "translation" : [
                0.006165657192468643,
                -0.07604309916496277,
                -0.37012380361557007
            ]
        }
    ],
    "materials" : [
        {
            "doubleSided" : true,
            "name" : "white",
            "pbrMetallicRoughness" : {
                "baseColorFactor" : [
                    0.800000011920929,
                    0.800000011920929,
                    0.800000011920929,
                    1
                ],
                "roughnessFactor" : 0.5
            }
        },
        {
            "doubleSided" : true,
            "name" : "red",
            "pbrMetallicRoughness" : {
                "baseColorFactor" : [
                    0.8000000715255737,
                    0,
                    0.03453324735164642,
                    1
                ],
                "metallicFactor" : 0,
                "roughnessFactor" : 0.5
            }
        }
    ],
    "meshes" : [
        {
            "name" : "Cube.002",
            "primitives" : [
                {
                    "attributes" : {
                        "POSITION" : 0,
                        "NORMAL" : 1,
                        "TEXCOORD_0" : 2
                    },
                    "indices" : 3,
                    "material" : 0
                }
            ]
        },
        {
            "name" : "Text",
            "primitives" : [
                {
                    "attributes" : {
                        "POSITION" : 4,
                        "NORMAL" : 5,
                        "TEXCOORD_0" : 6
                    },
                    "indices" : 7,
                    "material" : 1
                }
            ]
        }
    ],
    "accessors" : [
        {
            "bufferView" : 0,
            "componentType" : 5126,
            "count" : 329,
            "max" : [
                0.14999999105930328,
                0.29999998211860657,
                0.14999999105930328
            ],
            "min" : [
                -0.14999999105930328,
                0,
                -0.14999999105930328
            ],
            "type" : "VEC3"
        },
        {
            "bufferView" : 1,
            "componentType" : 5126,
            "count" : 329,
            "type" : "VEC3"
        },
        {
            "bufferView" : 2,
            "componentType" : 5126,
            "count" : 329,
            "type" : "VEC2"
        },
        {
            "bufferView" : 3,
            "componentType" : 5123,
            "count" : 612,
            "type" : "SCALAR"
        },
        {
            "bufferView" : 4,
            "componentType" : 5126,
            "count" : 194,
            "max" : [
                0.3041999638080597,
                0.019999999552965164,
                0
            ],
            "min" : [
                -0.28679999709129333,
                -0.019999999552965164,
                -0.2046000063419342
            ],
            "type" : "VEC3"
        },
        {
            "bufferView" : 5,
            "componentType" : 5126,
            "count" : 194,
            "type" : "VEC3"
        },
        {
            "bufferView" : 6,
            "componentType" : 5126,
            "count" : 194,
            "type" : "VEC2"
        },
        {
            "bufferView" : 7,
            "componentType" : 5123,
            "count" : 384,
            "type" : "SCALAR"
        }
    ],
    "bufferViews" : [
        {
            "buffer" : 0,
            "byteLength" : 3948,
            "byteOffset" : 0
        },
        {
            "buffer" : 0,
            "byteLength" : 3948,
            "byteOffset" : 3948
        },
        {
            "buffer" : 0,
            "byteLength" : 2632,
            "byteOffset" : 7896
        },
        {
            "buffer" : 0,
            "byteLength" : 1224,
            "byteOffset" : 10528
        },
        {
            "buffer" : 0,
            "byteLength" : 2328,
            "byteOffset" : 11752
        },
        {
            "buffer" : 0,
            "byteLength" : 2328,
            "byteOffset" : 14080
        },
        {
            "buffer" : 0,
            "byteLength" : 1552,
            "byteOffset" : 16408
        },
        {
            "buffer" : 0,
            "byteLength" : 768,
            "byteOffset" : 17960
        }
    ],
    "buffers" : [
        {
            "byteLength" : 18728,
            "uri" : "data:application/octet-stream;base64,"
        }
    ]
}
